<svg id="Capa_1" data-name="Capa 1" xmlns="http://www.w3.org/2000/svg" viewBox="0 0 60 60"><defs><style>.cls-1{fill:#718096;}</style></defs><title>beerIcon</title><path class="cls-1" d="M37.22,9A7.87,7.87,0,0,0,30,3.63,7.91,7.91,0,0,0,16.5,4,10,10,0,0,0,7.55,14.88a10.2,10.2,0,0,0,.51,2.33V58.13A1.88,1.88,0,0,0,9.94,60H40.57a1.87,1.87,0,0,0,1.87-1.87v-13h3.29a6.79,6.79,0,0,0,6.77-6.79V24.6a6.8,6.8,0,0,0-6.77-6.79H42.44V17a.43.43,0,0,0,0-.16v-.35A7.91,7.91,0,0,0,37.22,9Zm-26,4.9a6.25,6.25,0,0,1,6.26-6.25h.08a1.86,1.86,0,0,0,1.87-1.22,4.15,4.15,0,0,1,7.73-.17,1.88,1.88,0,0,0,2,1.13h.52a4.14,4.14,0,0,1,4.1,3.47,1.87,1.87,0,0,0,1.5,1.53,4.16,4.16,0,0,1,3.15,2.68H33.75A1.87,1.87,0,0,0,31.88,17V30.5a2.66,2.66,0,0,1-5.31,0h0V17a1.87,1.87,0,0,0-1.87-1.87H11.36A6.62,6.62,0,0,1,11.25,13.92Zm27.44,5.77V56.25H11.82V18.84h11V30.5a6.41,6.41,0,0,0,12.81,0h0V18.84h3Zm3.75,1.87h3.29a3,3,0,0,1,3,3V38.35a3,3,0,0,1-3,3H42.44Z"/></svg>