<svg id="Capa_1" data-name="Capa 1" xmlns="http://www.w3.org/2000/svg" viewBox="0 0 60 60"><defs><style>.cls-1{fill:#718096;}</style></defs><title>icons</title><path class="cls-1" d="M27.06,15.81c-3.89,0-8.75-1.2-10.91-4.5A5.16,5.16,0,0,1,16.09,6C17.71,2.91,21.73,1.11,27,1h0c5.4.18,9.36,2,11,5a5.16,5.16,0,0,1-.06,5.34C35.82,14.67,31,15.81,27.06,15.81Zm0-13.44c-6.83.18-9.11,3.06-9.77,4.26a3.9,3.9,0,0,0,0,4c1.5,2.34,5.34,3.84,9.77,3.84s8.28-1.5,9.78-3.84a3.9,3.9,0,0,0,0-4C36.18,5.43,33.9,2.55,27.06,2.37Z"/><path class="cls-1" d="M34,9.27a.74.74,0,0,1-.66-.42c-.54-1.44-2.88-2.34-6.36-2.4a.66.66,0,0,1,0-1.32h0c4.14.12,6.84,1.26,7.56,3.3a.65.65,0,0,1-.42.84Z"/><path class="cls-1" d="M27,32.73a2.46,2.46,0,0,1-.66-.06c-1.2-.3-3.29-1.62-3.41-7.38a.77.77,0,0,1,.66-.72c.36-.06.66.3.72.66.12,5,1.73,5.94,2.39,6.06a2.06,2.06,0,0,0,2.1-1c.9-1.8,1.68-5.46.24-12.78a.67.67,0,1,1,1.32-.24c1.2,6.18,1.08,10.8-.42,13.68A3.38,3.38,0,0,1,27,32.73Z"/><path class="cls-1" d="M38.16,29.85c-1.38,0-3.48-.9-5.82-5.1a.66.66,0,1,1,1.14-.66c2.58,4.5,4.44,4.56,5.1,4.38A2.12,2.12,0,0,0,40,26.55c-.06-1.86-1-5.16-5-10.38A.68.68,0,1,1,36,15.33c3.48,4.44,5.28,8.22,5.34,11.16A3.36,3.36,0,0,1,39,29.73,1.91,1.91,0,0,1,38.16,29.85Z"/><path class="cls-1" d="M46,24a2.92,2.92,0,0,1-.72-.06,11.28,11.28,0,0,1-3.84-1.74A.69.69,0,0,1,42.24,21a11.06,11.06,0,0,0,3.36,1.56,1.84,1.84,0,0,0,1.92-.66,1.94,1.94,0,0,0,.3-2c-.72-1.68-2.76-4.38-8.4-7.62a.66.66,0,1,1,.66-1.14c4.8,2.76,7.8,5.58,8.94,8.28a3.36,3.36,0,0,1-.48,3.42A3.32,3.32,0,0,1,46,24Z"/><path class="cls-1" d="M50,15.51a11.61,11.61,0,0,1-2.4-.24A.67.67,0,1,1,47.88,14a9.52,9.52,0,0,0,3.12.18,1.93,1.93,0,0,0,1.14-3.24C50.7,9.39,47.4,7.41,39.66,6.33a.78.78,0,0,1-.6-.78.78.78,0,0,1,.78-.6c6.54.9,11,2.58,13.26,5a3.29,3.29,0,0,1-1.92,5.52A7.26,7.26,0,0,1,50,15.51Z"/><path class="cls-1" d="M4,15.51a8,8,0,0,1-1.2-.06A3.37,3.37,0,0,1,.19,13.29,3.28,3.28,0,0,1,.91,9.93c2.28-2.4,6.78-4.08,13.38-5a.7.7,0,0,1,.18,1.38C8.29,7.17,4,8.73,1.93,10.89a1.86,1.86,0,0,0-.42,2,1.8,1.8,0,0,0,1.56,1.26c1.8.24,5.16-.12,10.86-3.24A.66.66,0,0,1,14.59,12C10.33,14.37,6.79,15.51,4,15.51Z"/><path class="cls-1" d="M16.09,29.91a2.91,2.91,0,0,1-1.56-.42,3.41,3.41,0,0,1-1.74-3A10.23,10.23,0,0,1,13.57,23a.66.66,0,0,1,1.26.42,9.11,9.11,0,0,0-.66,3.12,1.94,1.94,0,0,0,3.06,1.62c1.62-1.14,4.08-4,6.3-11.1a.66.66,0,1,1,1.25.42c-1.85,6-4.19,10-6.83,11.76A2.52,2.52,0,0,1,16.09,29.91Z"/><path class="cls-1" d="M8.11,24a3.18,3.18,0,0,1-2.52-1.2,3.36,3.36,0,0,1-.48-3.42,10.48,10.48,0,0,1,2.16-3.12.68.68,0,1,1,1,.9A8.94,8.94,0,0,0,6.43,20a2,2,0,0,0,.3,2,1.84,1.84,0,0,0,1.92.66c1.86-.42,5-2,9.54-7.38a.68.68,0,1,1,1,.9C15.37,20.67,12,23.31,8.89,24A3.69,3.69,0,0,1,8.11,24Z"/><path class="cls-1" d="M24.19,59a.63.63,0,0,1-.54-.3.75.75,0,0,1,.18-1c14-9.54,10.49-23,9.05-27a.66.66,0,0,1,1.26-.42c1.5,4.14,5.22,18.48-9.53,28.56A.65.65,0,0,1,24.19,59Z"/><path class="cls-1" d="M36,54a12.17,12.17,0,0,1-2.16-.18.68.68,0,1,1,.36-1.32c.48.12,12,2.64,17.34-14.58a.06.06,0,0,1,.06-.06c.12-.24,2.64-5.64,5.76-8.16-3.6-.12-11.88,1.14-18.66,14.4a.67.67,0,1,1-1.2-.6c9.24-18.18,21.9-14.88,22-14.88a.63.63,0,0,1,.48.6.74.74,0,0,1-.42.66c-2.82,1-5.82,6.42-6.78,8.46C48.42,52.23,40,54,36,54Z"/><path class="cls-1" d="M13.51,49.05a4.54,4.54,0,0,1-.9-.06c-6-.54-10.5-6.42-10.68-6.66a.72.72,0,0,1,0-.84.75.75,0,0,1,.78-.24c4.44,1.8,8.82,0,10.56-.84a18.29,18.29,0,0,1,4.14-1.5c10.13-2.22,13.67,5.4,13.73,5.46a.69.69,0,1,1-1.26.54c-.12-.3-3.18-6.72-12.23-4.74a17.47,17.47,0,0,0-3.84,1.38,15.73,15.73,0,0,1-9.36,1.56c1.74,1.68,4.74,4.14,8.22,4.44a9.34,9.34,0,0,0,7.38-2.88.68.68,0,1,1,.9,1A10.4,10.4,0,0,1,13.51,49.05Z"/></svg>