<svg id="Capa_1" data-name="Capa 1" xmlns="http://www.w3.org/2000/svg" viewBox="0 0 60 60"><defs><style>.cls-1{fill:#718096;}</style></defs><title>icons</title><path class="cls-1" d="M29.68,28.63l1.2.63a.86.86,0,0,1,.36,1.17.86.86,0,0,1-1.16.35l-1.21-.63A.87.87,0,0,1,28.51,29,.86.86,0,0,1,29.68,28.63Zm-7.9,1.06a.86.86,0,0,0,.45,1.13l1.28.54a1,1,0,0,0,.34.07.86.86,0,0,0,.33-1.66l-1.27-.54A.86.86,0,0,0,21.78,29.69Zm10.09-11.3,1.19.4a.9.9,0,0,0,.28,0,.86.86,0,0,0,.27-1.67l-1.19-.4a.86.86,0,0,0-.55,1.63ZM21.08,24.07l1.23.7a.82.82,0,0,0,.43.12.84.84,0,0,0,.74-.44.85.85,0,0,0-.31-1.17l-1.24-.71a.86.86,0,0,0-.85,1.5Zm6.13-.5,1.15.53a.94.94,0,0,0,.36.08.88.88,0,0,0,.79-.5.86.86,0,0,0-.43-1.14L27.93,22a.86.86,0,1,0-.72,1.56ZM16.8,32.94l1.26.54a.83.83,0,0,0,.34.07.87.87,0,0,0,.79-.52.86.86,0,0,0-.45-1.13l-1.26-.54a.86.86,0,0,0-.68,1.58Zm20.37-4.07,1.06.57a.86.86,0,0,0,.41.1.89.89,0,0,0,.76-.45.88.88,0,0,0-.35-1.17L38,27.35a.86.86,0,0,0-.81,1.52Zm4.47,6,1.09.51a.9.9,0,0,0,.36.08.88.88,0,0,0,.78-.5.86.86,0,0,0-.42-1.14l-1.09-.51a.86.86,0,1,0-.72,1.56ZM43.83,48l1.27.36a.62.62,0,0,0,.23,0,.86.86,0,0,0,.24-1.69l-1.27-.36a.86.86,0,0,0-1.06.59A.85.85,0,0,0,43.83,48Zm5.67-5.37a.85.85,0,0,0,.29,1.17l1,.61a.77.77,0,0,0,.44.12.86.86,0,0,0,.44-1.59l-1-.61A.84.84,0,0,0,49.5,42.61Zm4.35,4a.86.86,0,0,0,.86.86h.81a.87.87,0,0,0,0-1.73h-.81A.86.86,0,0,0,53.85,46.63Zm-3.28,2-1.15.24a.86.86,0,0,0-.66,1,.85.85,0,0,0,.84.68.55.55,0,0,0,.18,0l1.14-.24a.86.86,0,0,0,.67-1A.85.85,0,0,0,50.57,48.63ZM49.7,36.76a.86.86,0,0,0,.67.32.85.85,0,0,0,.54-.19A.86.86,0,0,0,51,35.68l-.77-1a.87.87,0,0,0-1.21-.13.86.86,0,0,0-.13,1.21Zm4.08,5.54a.86.86,0,1,0,1.42-1l-.63-.94a.86.86,0,0,0-1.2-.22.85.85,0,0,0-.22,1.19ZM44.68,30l.82.91a.87.87,0,0,0,.64.29.91.91,0,0,0,.58-.22.87.87,0,0,0,.06-1.22L46,28.81A.86.86,0,0,0,44.68,30Zm1.6,9.87-1.1-.58a.86.86,0,0,0-1.16.36.84.84,0,0,0,.36,1.16l1.09.58a.85.85,0,0,0,.4.1.88.88,0,0,0,.77-.46A.86.86,0,0,0,46.28,39.83ZM45.33,52H44.07a.86.86,0,0,0,0,1.72h1.26a.86.86,0,0,0,0-1.72ZM23.1,46.19a.86.86,0,0,0,.31,1.18l.92.53a.86.86,0,0,0,1.18-.31.86.86,0,0,0-.31-1.18l-.92-.53A.86.86,0,0,0,23.1,46.19Zm9.69,4.67-1.38-.19a.86.86,0,1,0-.23,1.7l1.38.19h.12a.86.86,0,0,0,.85-.74A.87.87,0,0,0,32.79,50.86Zm7.2-1.8-1.21-.2a.86.86,0,1,0-.28,1.7l1.21.2h.14A.86.86,0,0,0,40,49.06ZM34,21.5a.87.87,0,0,0,.3,1.18l1.06.62a.88.88,0,0,0,.44.12.86.86,0,0,0,.44-1.6l-1.06-.62A.85.85,0,0,0,34,21.5Zm9.21,3.44a.87.87,0,0,0,.62.26.85.85,0,0,0,.6-.25.87.87,0,0,0,0-1.22l-1-1a.85.85,0,0,0-1.21,0,.85.85,0,0,0,0,1.21ZM25.7,37.82l.92.46a.92.92,0,0,0,.39.09.87.87,0,0,0,.77-.48.86.86,0,0,0-.39-1.15l-.93-.46a.86.86,0,1,0-.76,1.54Zm-6.31,2.43,1,.56a.86.86,0,0,0,.41.1.84.84,0,0,0,.75-.45.87.87,0,0,0-.34-1.17l-1-.55a.86.86,0,0,0-.82,1.51ZM34.93,35l-1-.41a.86.86,0,0,0-.69,1.58l1,.41a.8.8,0,0,0,.34.07A.86.86,0,0,0,34.93,35Zm2.89,6.19a.87.87,0,0,0,.55,1.09l1.21.4a.84.84,0,0,0,.27,0A.86.86,0,0,0,40.12,41l-1.21-.41A.87.87,0,0,0,37.82,41.14Zm-6.89,4,1.08.51a.83.83,0,0,0,.37.08.87.87,0,0,0,.78-.49.86.86,0,0,0-.41-1.14l-1.09-.52a.86.86,0,0,0-1.14.41A.87.87,0,0,0,30.93,45.17ZM.14,40a.87.87,0,0,1,0-.94c.93-1.4,8.13-12.09,14-13.85L5.68,19.12a.85.85,0,0,1-.35-.58.86.86,0,0,1,.19-.66l2.6-3.17a.81.81,0,0,1,.61-.31.83.83,0,0,1,.64.23L16,20.94a30.64,30.64,0,0,1,.72-3.89C18.39,10.67,22,6.09,27.23,3.8a.85.85,0,0,1,1.18,1l-.86,4a58.79,58.79,0,0,1,8,1.51.87.87,0,0,1,.62.77.85.85,0,0,1-.5.84c-1.24.58-3,1.47-5,2.56a17.82,17.82,0,0,1,5.8.62C48.6,18.28,61.14,40.91,59.92,47.63c-.18,1-1.42,3.07-4.11,4.92s-7.3,3.72-14.63,3.72a57.44,57.44,0,0,1-10.9-1.14C22,53.54,16.53,50.09,14,44.89a16.63,16.63,0,0,1-1.52-8.54C10,41.43,8,46,7.89,47.22A.85.85,0,0,1,7.2,48L7,48a.86.86,0,0,1-.77-.48C4.31,43.63,3.94,41.25,4,39.89l-3,.46A.86.86,0,0,1,.14,40ZM17.66,22.05a24.56,24.56,0,0,1,4.15-3.94,17.15,17.15,0,0,1,1.86-1.37q1-.7,2.16-1.44c2.61-1.66,5.2-3.06,6.94-4-3.11-.66-6.31-1-6.35-1a.82.82,0,0,1-.61-.35.85.85,0,0,1-.14-.69l.68-3.13C19.8,10,18.08,17.48,17.66,22.05Zm-1.72,7.27c-1.07,2.53-3.25,9-.4,14.82,2.29,4.69,7.36,7.82,15.07,9.3,13.45,2.59,20.59.17,24.22-2.31,2.55-1.75,3.34-3.53,3.39-3.81,1-5.43-10.42-27.48-22.2-30.62-10.31-2.75-16,5-18.54,9.59a.08.08,0,0,0,0,0v0h0Zm-.13-5.08c0-.33,0-.7,0-1.1l-7-6.63L7.43,18.26ZM2.69,38.35,5,38a.86.86,0,0,1,.84,1.32h0s-.62,1.39,1,5.39c1.55-4.13,5.34-11.8,7.53-16.14.23-.53.42-.92.5-1.08s.27-.53.43-.84C11.82,27.06,6.28,33.29,2.69,38.35Z"/></svg>