<svg id="Capa_1" data-name="Capa 1" xmlns="http://www.w3.org/2000/svg" viewBox="0 0 60 60"><defs><style>.cls-1{fill:#718096;}</style></defs><title>icons</title><path class="cls-1" d="M35.43,35.61c3-3.55,8.36-7.09,17.48-8.15-3.46.53-12,3.7-16.43,10C50.5,44.5,54,27.39,60,26,38.29,19.55,35.2,28.07,35.43,35.61Z"/><path class="cls-1" d="M37.91,34.32c-3.76,1.59-6.93,9.2-5.5,13.87.45,1.51,1.74,1.13,1.36-.83C32.79,41.41,36.26,36.51,37.91,34.32Z"/><path class="cls-1" d="M7.09,27.39c9.12,1.13,14.47,4.6,17.48,8.14C24.8,28,21.71,19.47,0,25.88c6,1.36,9.5,18.47,23.52,11.46C19.07,31.08,10.55,28,7.09,27.39Z"/><path class="cls-1" d="M22.09,34.32c1.65,2.19,5.12,7.16,4.14,13-.38,2,.91,2.34,1.36.83C29,43.44,25.85,35.91,22.09,34.32Z"/><path class="cls-1" d="M29.1,33.72c.3.08,1.13-7.16.82-11.61s1.29,10,2.19,11.31c2.79-1.51,4.6-6.18,4.22-11.53-.45-6.33-7.61-11-7.61-11s-6.41,5.66-5.88,12C23.22,28.44,25.93,32.89,29.1,33.72Z"/><path class="cls-1" d="M30.6,28.37c-.15-1-.22-1.66-.22-1.66v1.66c0,1.05,0,2.49-.08,4.07-.07,3.24-.45,7.16-.83,10.18A43.89,43.89,0,0,0,29,47.67c0,.67.23.6.45.6s.38.15.61-.45a22.61,22.61,0,0,0,.9-5,60.13,60.13,0,0,0,.08-10.41C30.9,30.86,30.75,29.42,30.6,28.37Z"/></svg>