<svg id="Capa_1" data-name="Capa 1" xmlns="http://www.w3.org/2000/svg" viewBox="0 0 60 60"><defs><style>.cls-1{fill:#718096;}</style></defs><title>icons</title><path class="cls-1" d="M46,52.25a15.15,15.15,0,0,0,2.83-8.88c0-.62,0-1.25,0-1.87-10.12,3.7-16,2.14-21.41.72C22.52,41,18.2,39.8,11.22,43.56A15.07,15.07,0,0,0,14,52.25c4.81,6.26,27.11,6.26,31.92,0ZM27.62,20.42a8.28,8.28,0,0,1,1.2,3.66,4.08,4.08,0,0,1-8.16,0,8.26,8.26,0,0,1,1.19-3.66C23.58,17.5,25.89,17.5,27.62,20.42Zm-2.88.78a13,13,0,0,0-1.1,2.88,1.1,1.1,0,0,0,2.19,0A13,13,0,0,0,24.74,21.2ZM37,21.74a8.29,8.29,0,0,1,1.2,3.65,4.08,4.08,0,1,1-8.16,0,8.26,8.26,0,0,1,1.19-3.65c1.73-2.93,4-2.93,5.77,0Zm-2.88.78A13.13,13.13,0,0,0,33,25.39a1.09,1.09,0,1,0,2.18,0A13.13,13.13,0,0,0,34.09,22.52ZM28.67,10.13l-2.28,1.32V14.1l2.28,1.32L31,14.1V11.45Zm3.77-1.25,2.28-1.31V4.75L32.44,3.43,30.16,4.75V7.57Zm5.27-1.31,3.77,2.17v6.07l-5.26,3-3.78-2.18-3.77,2.18L24.9,16.67l-3.78,2.18-5.26-3V9.74l3.77-2.17V3L24.9,0l3.77,2.18L32.44,0l5.27,3ZM33.94,14.1l2.28,1.32L38.5,14.1V11.45l-2.28-1.32-2.28,1.32V14.1ZM23.4,11.45l-2.28-1.32-2.28,1.32V14.1l2.28,1.32L23.4,14.1Zm3.78-3.88V4.75L24.9,3.43,22.62,4.75V7.4L25,8.8ZM48.36,38.48a21.51,21.51,0,0,0-2-5.81c-1-1.88-2.1-3.72-3.25-5.51H38.25a4.51,4.51,0,0,0,.36-1.77,5.3,5.3,0,0,0-.16-1.21h6.26c1.52,2.32,3,4.64,4.28,7.1a25.68,25.68,0,0,1,2.77,12.16,18.08,18.08,0,0,1-3.44,10.62C42.24,62,17.76,62,11.68,54.06A18.08,18.08,0,0,1,8.24,43.44,25.68,25.68,0,0,1,11,31.28c1.3-2.46,2.76-4.77,4.27-7.1h4.93a4.53,4.53,0,0,0,1.22,3H16.9c-1.15,1.79-2.26,3.63-3.25,5.51a22.15,22.15,0,0,0-2.28,7.47C18.45,36.79,23,38,28.1,39.34s10.62,2.81,20.26-.86ZM29.93,27.16H28a4.44,4.44,0,0,0,1.22-3h.46a5.3,5.3,0,0,0-.16,1.21A4.35,4.35,0,0,0,29.93,27.16Z"/></svg>