<svg id="Capa_1" data-name="Capa 1" xmlns="http://www.w3.org/2000/svg" viewBox="0 0 60 60"><defs><style>.cls-1{fill:#718096;}</style></defs><title>malt</title><path class="cls-1" d="M32.45,14,30,10.64,27.55,14a7.85,7.85,0,0,0,0,9.25L30,26.59l2.45-3.35A7.85,7.85,0,0,0,32.45,14Z"/><path class="cls-1" d="M31.41,9.61,33,11.82V.87a.88.88,0,0,0-1.75,0v8.6Z"/><path class="cls-1" d="M28.59,9.61l.13-.14V.87A.88.88,0,0,0,27,.87v11Z"/><path class="cls-1" d="M24.41,22V4.31a.87.87,0,0,0-1.74,0V21.16Z"/><path class="cls-1" d="M19.14,19.39l1,.49V9.52a.87.87,0,1,0-1.74,0V19Z"/><path class="cls-1" d="M37.33,21.16V4.31a.87.87,0,1,0-1.74,0V22Z"/><path class="cls-1" d="M40.86,19.39l.78-.39V9.52a.88.88,0,1,0-1.75,0V19.88Z"/><path class="cls-1" d="M35.3,44.21a8,8,0,0,0-4.4,7.12.9.9,0,0,1-1.8,0h0a8,8,0,0,0-4.4-7.12L18.36,41v3.13a8,8,0,0,0,4.4,7.12l6,3v4.23a1.24,1.24,0,1,0,2.44,0V54.3l6-3a8,8,0,0,0,4.4-7.12V41Z"/><path class="cls-1" d="M30.9,44.42l6.34-3.17a8,8,0,0,0,4.4-7.12V31L35.3,34.17a8,8,0,0,0-4.4,7.11Z"/><path class="cls-1" d="M29.1,44.42l-6.34-3.17a8,8,0,0,1-4.4-7.12V31l6.34,3.17a8,8,0,0,1,4.4,7.12Z"/><path class="cls-1" d="M30.9,34.38l6.34-3.17a8,8,0,0,0,4.4-7.12V21L35.3,24.12a8,8,0,0,0-4.4,7.12Z"/><path class="cls-1" d="M29.1,34.38l-6.34-3.17a8,8,0,0,1-4.4-7.12V21l6.34,3.17a8,8,0,0,1,4.4,7.12Z"/></svg>