<svg id="Capa_1" data-name="Capa 1" xmlns="http://www.w3.org/2000/svg" viewBox="0 0 60 60"><defs><style>.cls-1{fill:#718096;}</style></defs><title>icons</title><path class="cls-1" d="M26.46,46.83V60h7.08V46.83H54L44.5,35.16h6.65L41.05,22.7h7.34L30,0,11.61,22.7H19L8.85,35.16H15.5L6.05,46.83Zm-5.55-1.62L18.4,42.45a1.31,1.31,0,0,1,.08-1.85,1.37,1.37,0,0,1,.95-.34,1.29,1.29,0,0,1,.9.43l4.13,4.52Zm11,13.16H28.09V46.83h3.82ZM41.8,45.21l-1.27-1.4A1.31,1.31,0,0,1,40.61,42a1.35,1.35,0,0,1,.94-.34,1.32,1.32,0,0,1,.91.42l2.89,3.17ZM24.93,8.85l4.8,5.26a1.31,1.31,0,0,1-1.93,1.77l-4.54-5ZM15,21.07l7.2-8.89L26.6,17a2.94,2.94,0,0,0,2.17.95,2.89,2.89,0,0,0,2-.77A2.92,2.92,0,0,0,30.93,13L26,7.57l4-5L45,21.07ZM12.26,33.54,21,22.7H39l8.78,10.84H35.18l-7.95-8.72a2.93,2.93,0,0,0-4.34,3.95l4.35,4.77Zm20.72,0H29.44l-5.35-5.86a1.3,1.3,0,0,1,.09-1.85,1.23,1.23,0,0,1,.94-.34,1.36,1.36,0,0,1,.91.42ZM17.59,35.16H42.41l8.13,10.05h-3L43.66,41a2.93,2.93,0,1,0-4.33,4l.27.3H26.66l-5.12-5.62a2.95,2.95,0,0,0-4.15-.19,2.94,2.94,0,0,0-.19,4.15l1.51,1.66H9.46Z"/></svg>