<?xml version="1.0" encoding="utf-8"?>
<!-- Generator: Adobe Illustrator 22.0.1, SVG Export Plug-In . SVG Version: 6.00 Build 0)  -->
<svg version="1.1" id="Capa_1" xmlns="http://www.w3.org/2000/svg" xmlns:xlink="http://www.w3.org/1999/xlink" x="0px" y="0px"
	 viewBox="0 0 60 60" style="enable-background:new 0 0 60 60;" xml:space="preserve">
<style type="text/css">
	.st0{fill:#718096;}
</style>
<title>icons</title>
<g>
	<path class="st0" d="M55,0c-0.5,0-0.9,0-1.4,0.1c-1.8,0.3-3.3,1.1-4.5,2.1c-1.6,1.3-2.6,2.7-3.2,3.6c-0.2-0.1-0.3-0.2-0.5-0.2
		c-1.6-0.7-3.4-1-5.1-1.1c-0.6,0-1.2,0-1.8,0.1c-2,0.2-4,0.7-6,1.7c-4.8,2.3-9.1,6.8-11,13.1c-5,16-10.4,25.2-14.4,30.5
		c-2,2.7-3.7,4.3-4.9,5.5c-0.6,0.6-1,1-1.4,1.4c-0.2,0.2-0.3,0.4-0.4,0.7c-0.1,0.3-0.2,0.8,0.1,1.2c0.2,0.4,0.5,0.5,0.6,0.5
		c0.2,0.1,0.3,0.1,0.5,0.2c0.4,0.1,0.8,0.1,1.3,0.1c1,0,2.3,0,4-0.2c3.3-0.4,7.7-1.4,12.6-3.4c9.9-4,22.1-12,31.3-27.3
		c4.7-7.3,3.9-17.3-3.1-21.7c0.5-0.8,1.4-2,2.7-3c1-0.8,2.1-1.4,3.4-1.6c1.3-0.2,2.7,0,4.4,1.1c1.2,0.8,2.3-1,1.1-1.8
		C57.9,0.5,56.4,0.1,55,0z M40.3,6.7c1.5,0,3,0.3,4.4,0.9c4,1.6,6.9,5.5,7.2,10.3c-1.3,0-2.6-0.3-3.7-0.9c-1.9-1.1-3.2-3-3.5-5.1
		c-0.1-0.7-0.7-1.1-1.4-0.9c-2,0.6-4.1,0.4-5.9-0.6c-1.2-0.7-2.1-1.6-2.7-2.8c1.4-0.5,2.8-0.9,4.1-1C39.3,6.7,39.8,6.7,40.3,6.7z
		 M32.7,8.6c0.8,1.5,2.1,2.8,3.6,3.7c2.1,1.1,4.4,1.4,6.5,1c0.5,2.1,2.1,4.3,4.3,5.5c1.4,0.8,3,1.2,4.7,1.2
		c-0.2,2.3-1.1,4.9-2.6,7.5c-9,14.8-20.7,22.5-30.3,26.4c-4.8,1.9-9.1,2.9-12.1,3.3c-1.5,0.2-2.6,0.2-3.4,0.2
		c0.2-0.2,0.3-0.3,0.5-0.5c1.2-1.2,2.9-3,5.1-5.7c4.2-5.5,9.8-14.9,14.8-31.1C25.4,14.6,28.8,10.8,32.7,8.6z M44.8,25.1
		c-0.4,0-0.7,0.2-0.9,0.6c-0.2,0.5-0.5,1-0.8,1.5c-0.8,1.2,1.1,2.4,1.8,1.1c0.3-0.5,0.6-1.1,0.9-1.6C46.2,25.9,45.7,25,44.8,25.1z
		 M42,29.8c-0.4,0-0.7,0.2-0.9,0.4C38,34.3,34.3,38,30.1,42c-1,1,0.4,2.5,1.5,1.5c4.2-4,8-7.8,11.2-12C43.3,30.8,42.8,29.8,42,29.8z
		"/>
</g>
</svg>
