<svg id="Capa_1" data-name="Capa 1" xmlns="http://www.w3.org/2000/svg" viewBox="0 0 60 60"><defs><style>.cls-1{fill:#718096;}</style></defs><title>sugary</title><path class="cls-1" d="M52.65,20.88a2,2,0,0,1,2,2,2.09,2.09,0,0,1-2,2.09,2.11,2.11,0,0,1-2.09-2.09A2,2,0,0,1,52.65,20.88ZM40.94,12.16a2.46,2.46,0,1,1-2.45,2.45A2.44,2.44,0,0,1,40.94,12.16ZM43.12,0a2.75,2.75,0,0,1,2.81,2.72,2.77,2.77,0,1,1-5.54,0A2.73,2.73,0,0,1,43.12,0ZM41.75,29a13.9,13.9,0,0,1-10.16-2.27v3.9H42.48A14.57,14.57,0,0,1,41.75,29Zm2.46-3.91c.54,3.82,2,7.17,6.44,7.17,3.45,0,5.27-2.63,7.35-4.9V60H2V4.27H27.14c0,3.17,0,3.45,2.63,5.26C25.42,20.15,33.13,28.14,44.21,25.05Zm-15.8-1.27A14.12,14.12,0,0,1,26,10.62a6.6,6.6,0,0,1-1.81-3.18h-19V30.59H28.41Zm-23.24,10v23H28.41v-23Zm26.42,23H54.83V34.49a9.73,9.73,0,0,1-9.44-.72H31.59Zm-20.43-31a1.59,1.59,0,1,1-3.17,0V10H24a1.59,1.59,0,0,1,0,3.18H11.16Zm26.42,27a1.59,1.59,0,0,1-3.18,0V36.85h16a1.59,1.59,0,0,1,0,3.18H37.58Zm-26.42,0a1.59,1.59,0,0,1-3.17,0V36.85H24A1.59,1.59,0,0,1,24,40H11.16Z"/></svg>