<svg xmlns="http://www.w3.org/2000/svg" viewBox="0 0 404 97.72"><defs><style>.cls-1{fill:#393b40;}.cls-2{fill:#eba600;}</style></defs><title>logos</title><g id="Capa_2" data-name="Capa 2"><path class="cls-1" d="M182.9,28.86l-.32,68.71,58,.15h0A18.11,18.11,0,0,0,253.94,81c0-13.37-5.23-16.77-6.55-17.41v-.43c9.46-8.45,2.07-23.66,2.07-23.66-5.35-10.66-16.53-10.66-16.53-10.66Zm53.29,62.55H189.77V35.56h42.07s13.42,0,13.42,15.23c0,0-.37,9.8-7.25,12.55v.23c1.71.48,9.06,3.16,9.06,14.06C247.07,77.63,246,91.41,236.19,91.41Z"/><path class="cls-2" d="M233.56,66.68c-4.78-5.35-1.74-8.25-1.74-8.25,7.67-6.08,5.23-10.92,4.34-12.5-1.15-2-6.9-5.32-11.6-2.23s-16,4.69-17.32,4.44a4,4,0,0,1-2.16-1.78s-1.19-1.48-1.78-.48c0,0-.29,11.64.12,14.71l.05.14a1.33,1.33,0,0,1-2.65,0l-.93-15.56a1.47,1.47,0,1,0-2.93,0V84.54H226.9c9.12,0,10.41-5.83,10.41-5.83A12.51,12.51,0,0,0,233.56,66.68ZM203.31,79.63a1.47,1.47,0,0,1-2.93,0V66.87a1.47,1.47,0,0,1,2.93,0Zm10.78-25.88a1.91,1.91,0,1,1-1.91,1.9A1.9,1.9,0,0,1,214.09,53.75ZM215,75.22a2.78,2.78,0,1,1,2.78-2.78A2.79,2.79,0,0,1,215,75.22Zm8.2-20.51a3.71,3.71,0,1,1,3.7-3.7A3.71,3.71,0,0,1,223.16,54.71Z"/><circle class="cls-1" cx="231.32" cy="28.86" r="5.6"/><circle class="cls-1" cx="216.56" cy="22.01" r="3.98"/><circle class="cls-1" cx="220.55" cy="3.06" r="3.06"/><circle class="cls-1" cx="233.9" cy="12.75" r="3.98"/><path class="cls-2" d="M16.32,53.4q4.47-6.74,10.73-6.74,9.68,0,14.42,8.26a31.08,31.08,0,0,1,2.52-3,20.37,20.37,0,0,1,4.69-3.42,13.24,13.24,0,0,1,6.65-1.85A16.2,16.2,0,0,1,68,52.5q5.13,5.84,5.13,19.31v16.6A28.89,28.89,0,0,1,73,91.69a7.56,7.56,0,0,1-.91,2.51c-.82,1.71-3.26,2.57-7.3,2.57s-6.43-.89-7.31-2.66a9.09,9.09,0,0,1-.81-2.52,28.56,28.56,0,0,1-.14-3.27V71.71q0-8.25-5.88-8.25c-2.22,0-3.72.72-4.51,2.18A13.09,13.09,0,0,0,45,71.81v16.6a26.66,26.66,0,0,1-.14,3.33,7.61,7.61,0,0,1-.9,2.46q-1.34,2.56-7.4,2.57t-7.31-2.66a9.09,9.09,0,0,1-.81-2.52,28.56,28.56,0,0,1-.14-3.27V71.71q0-8.25-5.88-8.25-5.7,0-5.7,8.25v16.8a26.4,26.4,0,0,1-.14,3.27,7.87,7.87,0,0,1-.9,2.52c-.95,1.64-3.42,2.47-7.4,2.47S1.83,95.91,1,94.2a9.09,9.09,0,0,1-.81-2.46A28.8,28.8,0,0,1,0,88.41V55a28.69,28.69,0,0,1,.14-3.27A6.9,6.9,0,0,1,1,49.32q1.42-2.57,6.74-2.57t6.93,1.71A7,7,0,0,1,16.32,53.4Z"/><path class="cls-2" d="M120.9,32.14l25.63,53a12.53,12.53,0,0,1,1.61,4.84q0,3.42-5.51,6.17a12.4,12.4,0,0,1-5.07,1.62,5.06,5.06,0,0,1-3-.86,5.74,5.74,0,0,1-1.71-1.8q-.52-.94-1.47-2.85L126.41,82H100.12L95.18,92.21c-.63,1.27-1.12,2.18-1.47,2.75A6.58,6.58,0,0,1,92,96.72a4.92,4.92,0,0,1-3,.9A12.54,12.54,0,0,1,83.89,96q-5.51-2.66-5.5-6.08A12.36,12.36,0,0,1,80,85.09l25.62-53a8.39,8.39,0,0,1,3.18-3.51,8.48,8.48,0,0,1,4.51-1.33Q118.44,27.2,120.9,32.14Zm-7.68,22.78-6.27,13h12.62Z"/><path class="cls-2" d="M153.36,35.56a26.69,26.69,0,0,1,.14-3.28,7.67,7.67,0,0,1,.9-2.51c.89-1.71,3.35-2.57,7.4-2.57,4.43,0,7.06,1.18,7.88,3.52a18.71,18.71,0,0,1,.47,4.93V88.41a26.66,26.66,0,0,1-.14,3.33,7.38,7.38,0,0,1-.9,2.46c-.89,1.71-3.35,2.57-7.4,2.57q-6.65,0-7.78-3.61a14.88,14.88,0,0,1-.57-4.84Z"/><path class="cls-1" d="M283.29,84.63a7.93,7.93,0,0,0,1.48.3c.5,0,1,.07,1.49.07a12.53,12.53,0,0,0,3.57-.51A13.17,13.17,0,0,0,293.05,83a12.1,12.1,0,0,0,2.68-2.32,12.29,12.29,0,0,0,1.93-3L306.92,87a24.38,24.38,0,0,1-4.05,4.49,25.62,25.62,0,0,1-5,3.39A24.6,24.6,0,0,1,292.3,97a25.21,25.21,0,0,1-23.95-6.64,25.55,25.55,0,0,1-5.45-8.28,27.15,27.15,0,0,1-2-10.54,28.11,28.11,0,0,1,2-10.75,24.35,24.35,0,0,1,13.51-13.62,25.53,25.53,0,0,1,9.85-1.9A25.3,25.3,0,0,1,298,48.11a25.88,25.88,0,0,1,5,3.41A25.4,25.4,0,0,1,307,56Zm6.49-26.09a7.1,7.1,0,0,0-1.74-.42,17,17,0,0,0-1.78-.09,12.72,12.72,0,0,0-4.89.95,11.67,11.67,0,0,0-4,2.71,12.9,12.9,0,0,0-2.66,4.24,15.12,15.12,0,0,0-1,5.58c0,.47,0,1,.07,1.58a16.07,16.07,0,0,0,.23,1.78q.17.9.39,1.74a6.92,6.92,0,0,0,.6,1.48Z"/><path class="cls-1" d="M332.73,84.63a7.87,7.87,0,0,0,1.49.3c.49,0,1,.07,1.48.07a12.47,12.47,0,0,0,3.57-.51A13.17,13.17,0,0,0,342.49,83a12.38,12.38,0,0,0,2.69-2.32,12.55,12.55,0,0,0,1.92-3L356.37,87a24.8,24.8,0,0,1-4.06,4.49,25.62,25.62,0,0,1-5,3.39,24.52,24.52,0,0,1-5.6,2.1,25.9,25.9,0,0,1-15.9-1.22,25,25,0,0,1-8.06-5.42,25.36,25.36,0,0,1-5.44-8.28,27.15,27.15,0,0,1-2-10.54,28.11,28.11,0,0,1,2-10.75,24.29,24.29,0,0,1,13.5-13.62,25.57,25.57,0,0,1,9.85-1.9A25.51,25.51,0,0,1,356.46,56Zm6.49-26.09a7,7,0,0,0-1.74-.42A17,17,0,0,0,335.7,58a12.72,12.72,0,0,0-4.89.95,11.54,11.54,0,0,0-4,2.71,12.76,12.76,0,0,0-2.67,4.24,15.12,15.12,0,0,0-1,5.58c0,.47,0,1,.07,1.58a16.07,16.07,0,0,0,.23,1.78q.17.9.39,1.74a6.45,6.45,0,0,0,.61,1.48Z"/><path class="cls-1" d="M399.82,47.32a6.36,6.36,0,0,1,3,2A6.7,6.7,0,0,1,404,53.68a15,15,0,0,1-1.8,6.64c-1.21,2.41-2.94,3.61-5.22,3.61a7.4,7.4,0,0,1-3.28-.76,9.59,9.59,0,0,0-4.12-.76,7.47,7.47,0,0,0-4.8,1.81,5.44,5.44,0,0,0-2.23,4.36V88.51a26.4,26.4,0,0,1-.14,3.27,7.41,7.41,0,0,1-.9,2.52c-.95,1.64-3.42,2.47-7.4,2.47q-4.56,0-6.55-1.62a5.69,5.69,0,0,1-1.71-4.08V55a28.69,28.69,0,0,1,.14-3.27,7.91,7.91,0,0,1,.81-2.42q1.32-2.57,7.4-2.57,5.7,0,7.12,2.19a5.41,5.41,0,0,1,1,3.13,16.64,16.64,0,0,1,1.38-1.61,17.39,17.39,0,0,1,3.84-2.57,11.16,11.16,0,0,1,5.17-1.61,24.55,24.55,0,0,1,3.75.24A22.92,22.92,0,0,1,399.82,47.32Z"/></g></svg>